
<svg version="1.0" xmlns="http://www.w3.org/2000/svg"
 width="1080.000000pt" height="1080.000000pt" viewBox="0 0 1080.000000 1080.000000"
 preserveAspectRatio="xMidYMid meet">

<g transform="translate(0.000000,1080.000000) scale(0.100000,-0.100000)"
fill="#000000" stroke="none">
<path d="M5422 10078 c-8 -24 -21 -51 -29 -60 -13 -14 -13 -21 -3 -32 8 -11 9
-24 2 -48 -21 -69 -22 -97 -4 -107 15 -9 15 -12 2 -21 -8 -5 -26 -10 -39 -10
-20 0 -22 -3 -13 -12 7 -7 12 -20 12 -30 0 -11 15 -28 35 -39 41 -25 44 -36
11 -49 -13 -5 -27 -13 -30 -19 -7 -11 13 -61 26 -61 4 0 8 -4 8 -10 0 -5 -25
-10 -56 -10 -63 0 -76 -10 -119 -92 -42 -79 -26 -168 37 -212 26 -18 17 -32
-26 -40 -40 -8 -119 -88 -143 -145 -19 -45 -19 -113 2 -153 16 -32 15 -33 -12
-53 -57 -41 -118 -99 -151 -142 -36 -47 -91 -159 -117 -239 -9 -27 -23 -63
-31 -81 -8 -17 -14 -36 -14 -43 0 -7 -14 -60 -31 -119 -33 -115 -45 -154 -113
-366 -25 -77 -59 -189 -76 -250 -17 -60 -40 -132 -50 -160 -11 -27 -22 -63
-26 -80 -3 -16 -12 -48 -19 -70 -7 -22 -21 -78 -30 -125 -9 -47 -23 -101 -30
-120 -8 -19 -16 -53 -20 -75 -11 -72 -38 -145 -53 -145 -8 0 -12 -6 -9 -14 3
-8 1 -17 -6 -20 -9 -3 -8 -7 2 -14 13 -9 13 -19 2 -64 -20 -84 -41 -228 -41
-285 l0 -52 -42 -11 c-98 -26 -117 -34 -149 -65 -19 -17 -46 -48 -61 -68 -40
-52 -211 -192 -293 -240 -38 -22 -106 -64 -150 -92 -44 -29 -91 -58 -105 -65
-14 -7 -41 -26 -61 -41 -43 -34 -49 -35 -49 -11 0 42 34 126 76 189 25 37 47
70 49 73 2 3 -31 6 -73 5 -56 0 -80 -4 -88 -15 -6 -8 -31 -62 -55 -120 -68
-165 -67 -164 -61 -47 2 56 2 100 -1 97 -14 -13 -39 -263 -52 -530 -14 -287
-29 -432 -59 -576 -31 -145 -54 -166 -38 -32 6 46 14 144 18 219 5 120 4 137
-10 142 -13 5 -16 22 -17 79 0 40 -4 82 -9 93 -5 13 -7 -3 -3 -41 3 -37 2 -64
-5 -68 -11 -6 -29 170 -18 181 3 4 6 -1 6 -10 0 -9 7 -20 16 -25 16 -9 27 -48
43 -142 l7 -45 8 65 c8 71 3 311 -9 428 l-8 74 -39 -72 c-30 -52 -41 -86 -45
-130 -6 -66 -18 -77 -28 -29 -11 51 -46 120 -57 117 -22 -8 -68 -105 -91 -193
-13 -49 -29 -91 -35 -93 -6 -2 -19 6 -29 18 -10 12 -26 26 -36 31 -18 10 -18
9 0 -18 31 -49 220 -298 237 -312 9 -8 26 -11 41 -7 21 5 25 12 25 44 1 25 3
32 9 22 7 -14 -4 -321 -13 -345 -2 -5 -13 10 -23 35 -11 25 -62 106 -113 180
-147 213 -193 272 -200 259 -8 -11 -64 58 -105 129 -21 34 -40 43 -31 15 2
-10 7 -44 11 -76 4 -32 15 -82 25 -112 l18 -52 -86 53 c-48 29 -100 64 -117
77 l-29 25 16 53 c10 32 19 110 23 189 6 127 19 243 31 283 8 26 22 21 40 -14
11 -22 18 -28 24 -20 9 16 21 -10 25 -54 2 -16 8 -31 14 -33 6 -2 11 -7 11
-12 0 -5 5 -21 10 -35 8 -22 13 -25 24 -16 11 10 14 7 12 -13 0 -13 -5 -22
-10 -19 -10 7 1 -30 27 -86 18 -38 22 -41 28 -24 4 11 53 69 109 128 56 60
116 127 134 149 63 79 134 212 185 346 28 74 65 157 81 183 35 57 35 57 12 57
-21 0 -46 -26 -86 -90 -30 -47 -91 -111 -100 -103 -2 2 -17 -2 -33 -11 -18
-10 -22 -15 -12 -16 41 -1 24 -49 -48 -137 -37 -46 -79 -57 -103 -28 -7 8 -17
12 -23 8 -6 -4 -8 0 -4 10 10 27 -10 29 -55 6 -35 -18 -65 -23 -154 -27 -124
-5 -111 3 -165 -101 -16 -30 -25 -59 -22 -65 3 -6 3 -8 -1 -4 -9 7 -101 -99
-131 -150 -23 -38 -21 -38 -195 -52 -167 -14 -210 -23 -285 -61 -33 -17 -74
-38 -92 -47 l-32 -16 180 -52 c167 -48 211 -65 197 -79 -2 -3 -41 4 -86 15
-111 28 -253 52 -261 44 -10 -10 136 -135 209 -177 56 -32 198 -83 283 -101
32 -6 59 -16 60 -20 5 -20 -73 -68 -117 -73 -25 -3 -46 -9 -46 -14 0 -4 12
-22 27 -40 29 -34 94 -68 131 -69 18 0 22 -5 22 -34 0 -19 9 -84 20 -143 11
-59 27 -148 36 -196 9 -49 14 -91 11 -94 -3 -3 -24 13 -46 35 -58 57 -128 93
-263 136 -65 20 -120 41 -123 47 -10 16 19 10 131 -26 59 -19 114 -35 121 -35
23 0 54 62 49 98 -7 46 -69 144 -128 202 -45 44 -236 181 -264 188 -15 4 -34
-118 -34 -217 0 -58 7 -102 26 -161 22 -71 33 -89 87 -144 67 -68 129 -106
175 -106 15 0 32 -4 38 -9 7 -7 172 -63 194 -66 36 -6 48 -21 69 -88 13 -39
44 -114 70 -166 37 -75 55 -99 89 -123 50 -34 61 -32 38 9 -61 110 -133 367
-124 439 l4 29 7 -30 c35 -139 137 -396 180 -448 18 -23 32 -28 81 -33 67 -6
76 -9 76 -28 0 -8 -16 -17 -37 -20 -59 -11 -73 -16 -73 -29 0 -7 38 -64 85
-126 47 -62 85 -117 85 -123 0 -12 -123 8 -185 31 -63 23 -155 75 -160 91 -3
10 -19 23 -35 30 -17 7 -30 15 -30 19 0 15 -101 81 -146 96 l-49 15 49 -5 c27
-3 58 -5 70 -5 15 0 17 -3 8 -8 -9 -6 0 -13 28 -22 22 -7 40 -17 40 -22 0 -4
14 -8 30 -8 17 0 43 -8 57 -17 l26 -17 -24 -8 c-15 -5 -9 -5 16 -2 22 3 45 10
51 15 8 6 22 1 43 -17 58 -48 20 3 -42 57 -33 30 -77 69 -96 88 -86 81 -193
131 -281 131 -19 0 -80 -14 -135 -31 -55 -16 -120 -36 -145 -43 l-45 -12 42
-28 c37 -25 103 -40 196 -46 4 0 7 -12 7 -28 0 -54 65 -119 155 -155 33 -14
91 -37 129 -53 75 -30 74 -44 -2 -23 -266 72 -529 264 -626 456 -14 28 -30 54
-36 58 -23 14 3 22 42 13 61 -14 157 -5 283 27 122 31 133 30 214 -30 19 -14
37 -25 41 -25 15 0 20 33 10 69 -13 49 -40 73 -123 110 l-69 31 -41 -24 c-62
-36 -140 -49 -248 -44 -125 7 -186 22 -255 64 -31 19 -58 33 -60 31 -5 -5 32
-154 50 -206 9 -24 44 -94 79 -155 49 -87 82 -130 157 -207 52 -53 113 -108
135 -123 22 -14 75 -50 117 -79 86 -59 171 -108 208 -120 53 -18 166 -37 254
-42 129 -8 247 -24 348 -46 48 -10 96 -19 107 -19 17 0 50 52 65 103 6 21 26
23 26 2 0 -22 -39 -116 -63 -152 -22 -33 -44 -45 -34 -19 3 8 0 19 -6 24 -31
24 -248 62 -353 62 -143 0 -247 16 -331 51 -132 54 -151 59 -242 66 -90 6
-125 0 -206 -38 -82 -37 -182 -78 -260 -105 -44 -15 -84 -31 -89 -35 -24 -21
189 -196 293 -241 70 -30 84 -32 187 -33 103 0 113 2 150 26 22 15 68 41 101
58 82 41 92 57 27 45 -78 -14 -465 -8 -481 8 -10 11 17 13 158 10 125 -3 170
-1 165 7 -4 6 -18 11 -31 11 -13 0 -61 18 -107 40 -80 38 -88 39 -216 46 -72
4 -132 10 -132 14 0 14 105 20 177 11 39 -5 127 -28 195 -52 107 -37 137 -43
228 -47 58 -2 110 -8 115 -13 6 -4 40 -4 75 1 87 13 180 13 180 0 0 -18 -62
-39 -140 -48 -90 -12 -217 -69 -271 -123 -39 -39 -72 -115 -83 -189 l-6 -45
23 30 c60 80 123 149 169 185 65 52 176 117 214 125 23 6 15 -3 -40 -43 -108
-80 -209 -176 -236 -225 -48 -91 -12 -77 194 76 83 62 199 148 258 190 58 42
118 90 131 107 24 28 57 41 57 22 0 -15 -121 -126 -202 -185 -42 -31 -103 -87
-135 -124 -32 -36 -103 -114 -158 -172 -55 -59 -116 -128 -135 -154 -19 -27
-54 -72 -77 -102 -24 -29 -43 -56 -43 -59 0 -3 44 -6 98 -6 53 0 903 -4 1887
-10 1785 -11 4580 -8 4622 5 22 7 22 7 -9 54 -48 70 -131 154 -254 256 -61 51
-136 122 -167 157 -30 34 -92 106 -138 158 -45 52 -87 98 -93 102 -8 5 -7 8 2
8 7 0 63 -48 125 -106 134 -127 241 -216 299 -249 52 -30 98 -33 98 -7 0 45
-77 119 -265 256 -131 95 -27 56 139 -53 44 -28 89 -70 125 -114 85 -106 109
-132 115 -127 2 3 -6 43 -19 89 -17 61 -33 94 -61 128 -46 54 -148 118 -222
139 -30 9 -99 36 -153 60 -97 43 -174 67 -252 79 -21 3 -35 10 -32 14 8 14
143 -16 285 -65 84 -29 152 -46 180 -46 59 0 320 49 366 68 96 40 388 75 369
44 -3 -5 -41 -10 -83 -10 -128 -1 -200 -16 -302 -63 -111 -52 -167 -67 -249
-67 -34 0 -61 -3 -61 -7 0 -5 49 -35 108 -68 l107 -60 100 0 c65 1 120 7 157
18 66 20 167 88 292 196 l86 75 -42 11 c-24 7 -110 45 -192 85 -112 55 -162
75 -201 78 -76 6 -207 -14 -310 -47 -132 -43 -173 -51 -334 -61 -80 -5 -184
-18 -231 -30 -47 -11 -95 -22 -107 -25 -13 -3 -23 -12 -23 -20 0 -46 -46 14
-83 107 -31 76 -32 85 -14 69 8 -6 19 -28 25 -48 7 -21 21 -53 32 -70 17 -28
23 -31 43 -24 53 21 275 61 413 76 220 23 291 48 429 148 316 231 461 426 521
702 22 98 22 97 -49 59 -35 -18 -92 -40 -128 -49 -115 -27 -274 -15 -354 27
-27 15 -33 14 -85 -5 -84 -31 -140 -91 -140 -151 0 -45 51 -42 90 5 27 32 91
30 190 -6 98 -36 187 -39 264 -9 16 6 17 3 11 -17 -13 -47 -64 -149 -91 -185
-25 -32 -29 -34 -35 -17 -8 22 -134 71 -257 100 -86 20 -135 12 -220 -40 -50
-30 -258 -233 -332 -325 -25 -30 -45 -44 -70 -49 l-35 -6 40 49 c88 107 125
167 125 204 0 24 -8 24 -80 6 -30 -8 -57 -13 -59 -10 -7 7 42 44 66 50 13 4
41 4 61 0 36 -5 39 -3 70 43 18 26 44 75 57 107 33 82 84 262 94 331 8 57 8
57 20 29 26 -63 -23 -296 -89 -426 -22 -44 -24 -50 -12 -50 32 0 151 184 188
288 12 35 28 70 36 78 16 16 219 98 268 109 49 10 96 36 157 85 64 50 106 131
129 243 15 74 15 81 -5 172 -12 53 -21 108 -21 122 l0 27 -27 -26 c-16 -15
-70 -51 -122 -82 -123 -71 -221 -166 -250 -242 -28 -75 -27 -97 10 -128 38
-32 63 -33 142 -1 79 33 142 44 135 24 -3 -8 -28 -19 -57 -26 -66 -14 -264
-99 -308 -130 l-33 -24 0 30 c0 17 9 88 21 158 13 80 18 146 15 176 -7 47 0
57 22 35 21 -21 32 9 32 83 0 50 -6 77 -25 115 -14 27 -25 52 -25 55 0 3 43 9
96 12 62 4 111 14 141 27 75 33 224 120 285 167 76 58 150 91 222 99 l59 7
-36 19 c-50 25 -225 42 -364 35 -62 -4 -113 -4 -113 -2 0 3 30 18 66 35 36 16
125 66 196 111 l130 82 -44 39 c-23 21 -60 50 -80 64 l-36 26 -49 -22 c-26
-11 -65 -34 -85 -50 -20 -17 -41 -30 -46 -30 -4 0 -32 11 -61 25 -28 14 -77
32 -107 40 -30 8 -59 17 -65 21 -8 4 -10 32 -6 83 l6 76 -21 -42 c-12 -24 -25
-43 -28 -43 -4 0 -21 20 -40 45 -37 50 -33 49 -175 46 -97 -3 -101 -2 -142 28
-63 46 -143 161 -212 306 -44 93 -75 125 -118 125 -34 0 -92 -24 -104 -43 -4
-5 8 -34 27 -63 19 -30 55 -119 84 -208 35 -107 88 -234 166 -397 87 -180 113
-245 108 -262 -7 -23 13 0 116 132 30 39 60 70 65 71 6 0 11 -74 13 -198 l3
-198 -63 -45 c-82 -59 -157 -103 -164 -96 -3 3 6 35 21 72 28 70 46 173 28
162 -5 -3 -33 -45 -62 -92 -51 -83 -92 -126 -99 -105 -2 6 1 17 7 24 7 8 16
28 21 45 8 29 7 30 -11 21 -10 -6 -19 -14 -19 -18 0 -4 -13 -16 -28 -27 -26
-18 -25 -17 5 17 17 20 34 46 38 57 12 38 -137 411 -165 411 -5 0 -10 -3 -10
-7 0 -5 -7 -53 -15 -108 -8 -55 -15 -103 -15 -107 0 -5 -4 -8 -8 -8 -5 0 -15
19 -22 42 -6 24 -20 53 -30 66 -10 12 -21 40 -25 62 -4 22 -10 40 -15 40 -14
0 -23 -686 -10 -807 15 -131 10 -159 -15 -83 -15 45 -19 95 -21 265 -5 463
-33 839 -70 967 -25 85 -25 89 -9 149 8 34 42 113 75 175 33 62 66 132 74 156
15 50 129 307 136 308 3 0 15 -48 28 -108 15 -67 38 -137 62 -187 66 -134 84
-148 225 -175 61 -12 116 -27 122 -32 7 -6 29 -42 49 -82 85 -167 112 -188
243 -184 57 2 86 7 89 16 2 8 -11 12 -45 12 -85 1 -135 16 -160 47 -13 15 -48
69 -78 119 -30 49 -62 97 -72 106 -10 9 -47 22 -83 28 -197 36 -223 61 -296
277 -20 59 -43 120 -50 135 -8 15 -14 42 -14 60 0 57 -15 64 -36 16 -10 -24
-50 -100 -89 -168 -53 -96 -86 -142 -142 -198 -82 -81 -105 -94 -146 -79 -47
16 -232 210 -223 234 3 6 48 33 100 59 53 26 96 51 96 56 0 23 -71 5 -140 -36
-79 -46 -108 -73 -132 -120 l-15 -29 -53 64 c-29 35 -62 83 -72 106 l-19 43
-72 -61 c-40 -33 -81 -74 -91 -91 l-19 -29 42 -60 c23 -32 37 -59 32 -59 -5 0
-38 24 -73 53 -35 29 -97 75 -138 102 -41 26 -85 57 -97 68 l-22 20 114 121
c127 136 224 249 251 295 10 17 21 31 24 31 3 0 47 -55 97 -122 51 -68 126
-156 167 -197 61 -61 80 -74 105 -73 68 2 194 97 427 324 l111 108 28 -42 c59
-89 178 -238 349 -438 111 -129 485 -530 495 -530 3 0 22 -15 41 -33 65 -61
234 -183 327 -235 105 -59 197 -93 313 -117 89 -18 127 -15 65 5 -98 32 -306
149 -435 244 -101 75 -345 315 -413 406 -23 30 -59 75 -81 98 -58 62 -59 65
-26 97 31 30 41 75 16 75 -7 0 -24 -16 -37 -35 -13 -19 -27 -35 -31 -35 -4 0
-17 15 -30 33 -12 17 -67 84 -122 147 -54 63 -128 153 -165 199 -36 46 -91
114 -121 150 -31 36 -71 85 -89 109 -18 24 -37 42 -42 40 -29 -10 -415 -391
-471 -464 l-39 -52 -93 97 c-52 53 -143 155 -204 226 -60 72 -121 136 -135
142 -31 14 -38 10 -103 -77 -51 -68 -167 -202 -266 -307 -49 -51 -60 -59 -67
-45 -4 9 -29 94 -55 187 -66 239 -148 514 -206 690 -27 83 -58 191 -70 241
-11 49 -37 135 -56 190 -19 54 -59 170 -88 256 -29 86 -64 174 -76 195 -30 49
-104 127 -156 163 -41 29 -41 29 -36 84 9 105 -50 215 -137 256 -28 13 -51 28
-51 34 0 5 10 29 21 53 28 58 22 127 -14 183 -33 49 -65 70 -116 77 l-40 6 29
27 c17 16 30 33 30 38 0 6 -16 29 -35 52 l-36 43 21 22 c24 25 25 43 6 64 -18
20 -38 125 -25 129 5 2 9 8 9 13 0 9 -58 139 -62 139 -2 0 -9 -19 -16 -42z
m45 -594 c64 -27 80 -47 68 -84 -10 -32 -85 -70 -137 -70 -39 0 -50 5 -72 31
-53 63 -20 146 59 148 11 1 48 -11 82 -25z m-59 -279 c12 -25 26 -45 30 -45
17 0 45 -78 39 -109 -5 -26 -3 -31 21 -40 l27 -9 -27 -1 c-20 -1 -32 -11 -50
-44 l-24 -42 29 -24 c15 -13 42 -47 58 -75 17 -28 44 -73 60 -100 89 -145 264
-625 309 -846 5 -25 16 -70 25 -100 32 -113 84 -514 69 -530 -8 -7 -24 23 -24
45 -1 11 -18 85 -39 165 -124 468 -151 561 -183 620 -10 19 -18 39 -18 44 0
25 -130 325 -186 429 -35 65 -67 129 -70 142 -9 36 -19 24 -38 -44 -9 -32 -34
-91 -56 -131 -21 -39 -45 -87 -52 -106 -6 -19 -16 -34 -21 -34 -4 0 -5 -4 -2
-10 3 -5 1 -20 -6 -32 -7 -12 -20 -52 -29 -88 -10 -36 -32 -118 -49 -184 -45
-167 -34 -177 17 -16 40 123 194 460 211 460 13 0 79 -125 105 -198 18 -50 26
-93 26 -136 0 -50 10 -92 50 -206 76 -215 135 -470 225 -965 3 -17 2 -25 -3
-20 -10 11 -10 12 -77 270 -24 94 -55 202 -68 240 -14 39 -38 108 -54 155 -17
47 -33 84 -37 83 -4 -1 -17 -14 -28 -28 l-21 -27 36 -81 c47 -111 95 -271 172
-587 57 -230 91 -416 115 -635 28 -258 31 -325 15 -325 -21 0 -26 14 -31 92
-3 40 -14 138 -25 218 -18 131 -29 198 -73 440 -8 41 -25 110 -40 152 -14 43
-28 94 -32 115 -4 21 -10 40 -13 43 -4 3 -12 28 -19 55 -16 62 -107 247 -136
274 -24 23 -35 18 -56 -24 -8 -16 -19 -33 -24 -36 -5 -4 -1 -21 8 -39 9 -18
16 -37 16 -43 0 -5 19 -26 43 -47 69 -61 108 -156 158 -385 24 -110 22 -139
-8 -143 -14 -2 -23 2 -23 10 0 24 -56 192 -78 233 -34 64 -44 75 -38 40 11
-65 -40 -298 -68 -308 -8 -3 -22 2 -33 12 -10 10 -24 16 -31 13 -7 -2 -12 6
-11 20 0 13 -3 44 -7 69 -8 60 5 83 64 111 l47 23 -1 63 c-1 42 -7 69 -17 79
-13 13 -16 11 -27 -23 -7 -22 -21 -54 -32 -71 -11 -18 -17 -37 -14 -42 4 -5 3
-11 -1 -13 -12 -5 -61 -108 -69 -143 -4 -16 -9 -34 -13 -40 -3 -5 -6 -15 -6
-20 0 -6 -12 -42 -27 -80 -47 -123 -76 -236 -98 -385 -28 -178 -25 -170 -49
-170 -28 0 -34 16 -32 79 1 37 -3 63 -13 76 -17 22 -21 82 -6 87 5 2 17 55 26
118 10 63 22 122 29 130 17 22 65 228 66 285 1 44 2 46 9 20 7 -28 8 -27 9 14
0 24 10 74 21 110 27 94 72 346 68 384 l-4 32 -8 -30 c-8 -32 -16 -55 -35 -95
-6 -14 -9 -17 -6 -7 3 11 1 16 -6 11 -6 -3 -9 -19 -5 -35 3 -16 2 -29 -2 -29
-4 0 -15 -28 -25 -63 -10 -34 -28 -84 -38 -112 -27 -66 -69 -282 -68 -342 1
-48 1 -48 10 -14 6 18 12 31 15 29 5 -6 -25 -140 -33 -148 -3 -3 -2 10 2 28 3
17 4 32 1 32 -3 0 -13 -15 -22 -32 -13 -25 -21 -94 -34 -274 -20 -273 -34
-324 -74 -261 -32 49 -39 141 -33 416 3 146 11 293 16 326 13 72 53 459 52
497 0 15 4 30 9 33 6 4 10 16 10 29 0 12 9 41 20 63 11 23 17 49 14 57 -3 9
-2 16 4 16 9 0 35 92 52 190 5 25 11 53 15 63 6 13 3 16 -9 11 -9 -3 -16 -13
-16 -22 0 -8 -2 -13 -5 -11 -2 3 0 32 6 65 5 32 12 74 14 92 3 18 10 42 15 52
6 10 10 31 11 47 0 25 1 26 9 8 7 -16 9 -17 9 -3 1 23 -17 32 -34 18 -12 -10
-15 -10 -16 1 -2 18 -16 -39 -17 -66 -1 -15 3 -12 13 10 l15 30 -6 -30 c-3
-16 -9 -54 -14 -84 -11 -66 -26 -85 -36 -45 -6 25 -11 14 -31 -71 -58 -244
-103 -481 -132 -690 -10 -71 -23 -148 -31 -169 -12 -37 -14 -38 -26 -21 -8 10
-14 35 -14 55 0 35 -1 37 -33 35 -94 -7 -171 -35 -94 -35 20 0 46 -9 61 -21
21 -17 26 -29 26 -65 0 -25 -5 -54 -10 -64 -8 -15 -6 -24 10 -40 11 -11 28
-20 38 -20 40 0 82 -56 54 -74 -4 -2 -73 0 -152 5 -147 9 -224 4 -198 -12 11
-7 11 -9 -1 -9 -24 0 -62 50 -59 79 3 26 5 26 95 31 50 3 95 9 100 13 4 5 -24
6 -62 2 -58 -6 -73 -4 -84 8 -7 9 -10 21 -7 26 4 5 18 74 31 153 55 311 76
412 102 478 3 8 8 30 10 49 2 19 8 41 12 50 5 9 14 50 21 91 7 41 19 85 26 97
8 12 14 32 14 44 0 22 16 88 30 124 4 11 15 65 24 120 9 55 23 110 31 122 8
12 15 34 15 49 0 17 6 28 19 31 16 4 18 8 9 23 -17 26 8 80 36 80 20 1 20 1 3
15 -32 23 -1 85 42 85 27 0 27 15 0 34 -35 24 -11 61 51 79 11 3 7 8 -12 17
-16 7 -28 17 -28 22 0 17 45 58 64 59 12 0 15 3 9 6 -23 9 -14 26 37 75 28 26
50 51 50 56 0 11 45 32 70 32 29 0 61 39 54 66 -4 16 0 25 14 33 17 9 19 8 15
-9 -3 -11 -1 -20 5 -20 5 0 13 12 16 26 5 18 12 24 22 20 9 -3 12 -1 9 4 -3 6
1 10 9 10 8 0 18 5 21 10 4 7 -16 10 -60 8 -56 -2 -69 1 -81 17 -31 42 -14 93
55 166 102 108 113 119 120 119 4 0 17 -20 29 -45z m252 -215 c0 -5 -8 -10
-17 -10 -15 0 -16 2 -3 10 19 12 20 12 20 0z m170 -391 c55 -67 103 -133 107
-148 3 -14 12 -35 19 -46 20 -28 17 -43 -8 -48 -17 -3 -15 -5 8 -6 26 -1 36
-9 57 -43 23 -39 23 -43 8 -55 -15 -11 -15 -12 2 -13 9 0 23 -12 29 -26 11
-23 9 -28 -7 -41 -15 -12 -17 -16 -6 -20 22 -9 53 -43 48 -56 -2 -6 -14 -14
-28 -18 -21 -6 -20 -7 9 -8 27 -1 35 -7 47 -33 14 -36 37 -137 39 -178 0 -14
7 -29 14 -33 16 -10 16 -44 0 -49 -9 -3 -8 -9 5 -22 9 -10 17 -27 17 -39 0
-11 11 -57 24 -101 14 -45 26 -94 28 -111 l3 -30 -61 -3 c-47 -2 -66 1 -78 14
-25 24 -15 37 40 55 l49 17 -60 3 c-52 4 -60 7 -60 24 0 11 -4 26 -8 33 -13
19 0 31 41 38 68 12 70 23 5 24 -63 0 -63 0 -63 29 0 30 13 40 53 42 12 1 4 5
-18 10 -50 12 -60 22 -46 47 7 14 24 22 49 25 l37 4 -41 1 c-47 2 -69 22 -61
53 3 12 0 28 -9 36 -18 19 -18 43 1 43 8 0 15 5 15 10 0 6 -9 10 -19 10 -12 0
-22 9 -26 23 -3 12 -10 31 -15 42 -5 11 -23 63 -40 115 -17 52 -35 104 -40
115 -5 11 -16 45 -24 75 -24 86 -69 214 -87 240 -9 14 -26 44 -38 67 -42 84
-29 74 89 -68z m434 -1188 c24 -45 76 -215 76 -246 0 -16 7 -52 16 -81 27 -84
23 -87 -110 -82 -63 2 -118 7 -122 11 -19 19 22 31 108 33 56 1 94 7 96 13 6
18 -49 33 -108 29 l-55 -3 -8 70 c-4 39 -10 115 -13 169 -6 112 -4 116 63 116
37 0 45 -4 57 -29z m-1044 -282 c0 -6 -4 -7 -10 -4 -5 3 -10 11 -10 16 0 6 5
7 10 4 6 -3 10 -11 10 -16z m1158 -221 c5 -7 13 -32 17 -55 7 -43 7 -43 -25
-43 -43 0 -182 30 -197 42 -7 6 -13 23 -13 39 l0 29 104 0 c71 0 107 -4 114
-12z m90 -158 c37 -14 42 -35 10 -44 -13 -3 -70 -6 -127 -6 -57 0 -133 -5
-168 -11 -35 -6 -67 -8 -71 -5 -10 11 12 40 40 53 64 32 243 39 316 13z
m-1108 -35 c7 -8 18 -15 25 -15 7 0 20 -16 29 -35 20 -41 61 -85 81 -85 14 0
115 -107 115 -122 0 -13 -121 -98 -139 -98 -42 0 -165 30 -172 42 -24 36 -22
77 13 253 16 83 22 91 48 60z m344 -47 c2 -18 14 -89 25 -158 27 -161 51 -343
51 -392 0 -31 -3 -38 -20 -38 -26 0 -36 26 -45 125 -9 104 -38 233 -70 318
-14 37 -25 77 -25 89 0 21 55 88 72 88 4 0 9 -15 12 -32z m696 12 c0 -5 -4
-10 -10 -10 -5 0 -10 5 -10 10 0 6 5 10 10 10 6 0 10 -4 10 -10z m342 -95 c32
-30 91 -94 132 -143 99 -117 112 -128 187 -158 60 -25 71 -26 186 -21 l121 5
45 -97 c49 -107 104 -267 95 -277 -4 -3 -25 13 -47 35 -47 47 -127 74 -256 88
l-80 8 3 48 c2 32 -1 48 -10 51 -7 2 -44 11 -81 20 -159 37 -246 103 -319 242
-31 59 -37 83 -43 162 -4 51 -4 92 1 92 5 0 35 -25 66 -55z m-1947 37 l40 -7
-1 -100 c0 -119 -14 -217 -31 -222 -7 -3 -23 19 -38 52 -37 79 -85 130 -140
145 -62 17 -75 10 -75 -45 0 -63 17 -91 96 -161 125 -109 212 -285 221 -449 5
-79 5 -81 -25 -113 -28 -30 -35 -32 -94 -32 -50 0 -69 -4 -81 -18 -22 -24 -13
-32 40 -32 61 0 66 -21 17 -69 -22 -21 -51 -46 -65 -55 -25 -16 -27 -16 -32 3
-5 19 -12 20 -276 14 -302 -7 -292 -9 -246 60 l26 37 88 0 c67 0 90 3 94 14 8
21 -2 26 -49 26 -39 0 -44 3 -50 27 -12 44 12 252 37 323 29 87 82 191 117
232 75 88 83 110 57 171 -8 20 -15 61 -15 91 0 51 3 57 37 85 l38 31 135 -1
c74 0 153 -3 175 -7z m1702 -18 c16 -22 27 -152 20 -236 -6 -65 -5 -70 20 -91
146 -124 223 -288 237 -502 l5 -90 -177 0 c-176 0 -177 0 -180 -22 -2 -13 -7
-23 -12 -23 -5 0 -7 6 -5 13 12 33 -10 38 -163 39 l-152 0 0 87 c0 115 19 182
90 326 67 134 82 154 160 212 72 52 79 62 86 115 7 53 -11 78 -56 78 -38 0
-86 -43 -141 -125 -24 -36 -46 -62 -50 -58 -10 10 -29 266 -21 275 12 12 175
27 252 22 54 -3 78 -8 87 -20z m-903 -290 c3 -9 6 -47 6 -86 0 -50 -3 -69 -12
-66 -11 4 -86 133 -87 150 -1 7 28 14 65 17 12 0 25 -6 28 -15z m-179 -14 c23
-9 26 -14 20 -38 -15 -61 -116 -219 -187 -292 -135 -139 -357 -316 -384 -306
-24 9 -3 35 98 123 115 101 161 149 224 237 86 120 91 133 83 185 -4 25 -5 58
-2 74 5 26 8 27 64 27 32 0 70 -5 84 -10z m195 -315 c123 -140 136 -157 89
-125 -85 60 -208 208 -223 270 l-7 25 18 -25 c10 -14 65 -79 123 -145z m-160
117 c0 -11 -8 -34 -17 -53 -32 -64 -177 -246 -242 -304 -19 -16 -41 -36 -49
-44 -26 -26 -166 -131 -175 -131 -4 0 -23 -10 -40 -23 -42 -31 -85 -48 -92
-38 -8 14 51 75 160 168 140 119 328 306 382 381 45 62 73 79 73 44z m55 -110
c53 -84 153 -208 213 -263 53 -49 166 -132 195 -142 7 -2 8 -8 4 -13 -10 -11
-127 47 -202 101 -67 47 -143 125 -195 199 -30 41 -35 45 -38 27 -5 -34 43
-113 173 -282 17 -21 66 -77 109 -124 43 -47 76 -88 73 -91 -12 -12 -103 51
-174 119 -64 62 -169 202 -186 250 -3 9 -12 17 -18 17 -8 0 -8 -4 1 -15 7 -8
9 -15 4 -15 -5 0 -4 -4 2 -8 11 -8 58 -101 59 -117 0 -14 32 -72 69 -125 17
-25 30 -49 29 -55 -3 -15 121 -108 212 -159 44 -25 109 -53 144 -62 84 -21
201 -16 256 11 39 20 40 21 43 78 2 31 6 57 9 57 21 0 220 -192 254 -245 14
-23 40 -47 57 -54 28 -12 51 -45 40 -57 -5 -4 -255 12 -383 26 -196 21 -412
133 -582 302 -29 29 -53 48 -53 42 0 -10 127 -131 194 -183 52 -41 129 -84
191 -106 100 -36 84 -46 -21 -14 -91 28 -135 51 -219 115 -69 52 -243 223
-262 257 -13 25 -32 14 -76 -44 -66 -85 -282 -238 -444 -315 -108 -51 -247
-79 -383 -76 -74 2 -87 5 -103 24 -15 18 -20 20 -28 7 -5 -7 -9 -17 -9 -21 0
-4 -25 -10 -56 -14 l-56 -7 53 -19 c30 -11 81 -25 114 -32 59 -11 60 -12 63
-47 3 -30 -1 -37 -24 -48 -24 -11 -25 -13 -11 -29 13 -14 14 -24 5 -57 -15
-55 -16 -84 -20 -461 l-3 -332 -120 4 c-66 2 -112 1 -102 -2 9 -3 17 -9 17
-14 0 -5 15 -9 33 -9 80 -1 146 -14 165 -31 16 -15 20 -32 20 -83 0 -35 6 -83
12 -106 18 -68 12 -71 -161 -71 -132 0 -151 2 -168 19 -10 10 -20 24 -23 31
-2 7 -16 14 -30 15 -25 3 -27 1 -21 -26 5 -26 3 -30 -26 -35 -17 -4 -31 -9
-31 -13 0 -3 -104 -6 -230 -6 -126 0 -230 -3 -230 -6 0 -3 149 -8 331 -11 360
-6 352 -5 347 -63 -4 -39 -20 -42 -230 -44 l-168 -1 0 -49 c0 -32 -5 -51 -14
-54 -7 -3 -54 -8 -103 -12 l-91 -7 -4 -49 c-6 -58 -15 -71 -32 -46 -10 13 -27
17 -70 17 l-56 0 0 149 c0 145 0 149 23 156 12 4 30 6 40 5 27 -2 20 18 -14
35 -25 14 -30 21 -27 47 2 24 9 33 28 38 14 4 47 21 74 39 42 26 60 31 115 32
100 1 120 15 32 22 -81 7 -90 11 -75 34 10 16 79 34 249 67 84 16 65 25 -62
29 l-81 2 -6 283 -6 282 -30 57 c-16 30 -30 66 -30 77 0 12 -4 26 -10 32 -5 5
-10 29 -12 54 -3 43 -2 45 26 48 23 3 26 6 15 13 -15 10 139 6 221 -6 44 -6
130 -40 130 -50 0 -3 -14 -32 -30 -65 -51 -100 -60 -155 -60 -352 0 -154 2
-179 16 -185 9 -3 82 -2 162 3 l147 9 -3 165 c-4 180 -11 223 -44 265 -20 26
-21 29 -5 74 31 89 31 131 1 215 -23 65 -25 79 -13 87 9 6 -4 9 -38 9 -45 0
-53 3 -53 19 0 44 45 89 188 186 29 20 80 64 112 98 36 36 63 57 68 52 5 -6
14 -29 21 -52 6 -23 24 -52 39 -64 25 -20 34 -21 157 -16 94 4 149 11 199 27
77 24 235 105 252 128 16 22 -3 40 -35 34 l-24 -5 19 26 c10 15 23 27 27 27 4
0 3 10 -3 23 -10 20 -9 20 9 -3 11 -14 21 -23 21 -20 9 49 8 61 -6 49 -18 -15
-18 2 1 27 36 47 9 32 -57 -34 -40 -39 -95 -86 -123 -103 -27 -18 -70 -45 -94
-61 -46 -29 -62 -31 -69 -10 -4 12 16 33 97 101 106 88 311 356 389 508 26 51
52 93 57 93 6 0 23 -21 40 -48z m-1694 -114 c-53 -82 -99 -153 -124 -198 -15
-25 -46 -69 -70 -98 -47 -57 -245 -242 -259 -242 -17 0 -7 31 42 131 28 56 50
108 50 114 0 7 9 20 21 31 20 18 21 18 35 -1 8 -11 17 -15 22 -9 5 5 30 36 57
69 68 84 227 245 242 245 7 0 1 -17 -16 -42z m2409 -375 c38 -10 52 -39 25
-49 -28 -11 -64 17 -220 171 -146 145 -260 277 -248 289 3 3 96 -87 207 -199
155 -157 209 -205 236 -212z m-3813 345 c-3 -8 -6 -5 -6 6 -1 11 2 17 5 13 3
-3 4 -12 1 -19z m657 -181 c-8 -86 -11 -92 -31 -71 -13 13 -14 22 -5 47 6 18
14 49 17 69 12 66 26 31 19 -45z m992 38 c11 -44 -6 -95 -44 -137 -33 -35 -44
-40 -102 -48 -36 -4 -82 -17 -104 -28 l-38 -19 333 5 c366 5 447 5 460 -4 15
-9 10 -60 -8 -77 -10 -8 -39 -18 -65 -22 -32 -5 -48 -12 -48 -22 0 -8 -5 -11
-10 -8 -6 4 -8 11 -5 16 9 13 -9 11 -23 -3 -8 -8 -12 -9 -12 -1 0 7 -23 11
-67 10 -91 -3 -595 12 -660 19 -41 4 -53 9 -53 22 0 21 24 37 78 51 31 9 56
29 106 84 80 87 203 185 233 186 16 1 24 -6 29 -24z m2994 -100 c87 -119 94
-126 160 -157 45 -21 68 -38 67 -48 -2 -13 -62 -15 -462 -17 -253 0 -468 1
-477 4 -11 2 -18 14 -18 28 0 52 5 55 111 55 54 0 99 -3 99 -7 0 -9 476 -6
528 3 45 7 36 26 -22 44 -57 19 -123 71 -132 105 -6 25 30 115 46 115 5 0 50
-56 100 -125z m-450 10 l174 0 10 -27 c5 -15 8 -30 5 -32 -2 -3 -128 -2 -279
2 -265 7 -277 8 -304 30 -16 12 -25 23 -20 23 44 6 221 13 229 9 6 -3 89 -5
185 -5z m-3583 -47 c-3 -8 -6 -5 -6 6 -1 11 2 17 5 13 3 -3 4 -12 1 -19z
m5790 -4 c-3 -3 -12 -4 -19 -1 -8 3 -5 6 6 6 11 1 17 -2 13 -5z m-1355 -71
c72 -89 99 -129 92 -136 -7 -7 -174 177 -174 192 0 28 32 5 82 -56z m337 -118
c-12 -68 -8 -222 6 -245 4 -7 18 2 40 27 33 39 160 151 139 123 -6 -8 -34 -44
-63 -80 -50 -63 -71 -110 -71 -160 0 -24 2 -23 40 17 22 23 40 50 40 60 0 10
9 24 20 31 18 11 20 10 20 -14 0 -16 -20 -50 -57 -95 -59 -72 -67 -77 -80 -56
-5 7 -10 -19 -13 -63 l-5 -75 -13 40 c-20 65 -44 351 -37 440 5 70 28 136 41
122 3 -3 0 -35 -7 -72z m-2299 14 c0 -6 -6 -7 -12 -4 -23 12 146 -144 187
-172 22 -15 65 -48 96 -73 31 -25 71 -53 88 -62 17 -9 31 -22 31 -29 0 -7 -8
-6 -22 4 -13 9 -48 31 -78 48 -30 17 -79 52 -109 78 -67 57 -225 204 -229 213
-4 7 29 16 41 11 4 -2 7 -9 7 -14z m-1039 -70 c25 -25 24 -38 -4 -48 -28 -11
-407 -18 -423 -9 -6 4 -9 21 -6 37 l4 30 152 3 c83 2 175 4 205 5 40 1 58 -4
72 -18z m976 1 c-4 -15 0 -19 17 -17 13 1 21 -4 21 -13 0 -20 133 -128 268
-219 92 -62 127 -93 127 -115 0 -3 -4 -6 -9 -6 -17 0 -207 134 -286 201 -44
38 -83 69 -87 69 -32 0 37 -76 137 -150 71 -53 175 -168 209 -231 16 -30 41
-72 56 -95 28 -43 44 -144 30 -194 -6 -24 -7 -24 -14 10 -12 53 -74 209 -103
260 -29 49 -105 153 -138 185 -11 12 -40 35 -65 52 -25 17 -56 44 -70 60 -41
50 -62 50 -130 2 -49 -34 -59 -46 -55 -63 5 -15 4 -17 -3 -7 -8 12 -13 11 -31
-1 -21 -15 -20 -15 21 -15 24 -1 51 3 60 8 39 21 6 -17 -45 -51 -28 -19 -66
-48 -84 -65 -17 -16 -46 -43 -64 -60 -17 -16 -43 -53 -57 -83 -50 -109 -64
-186 -82 -452 -6 -85 -14 -175 -19 -200 -4 -25 -7 -83 -5 -130 2 -47 -1 -99
-5 -115 l-9 -30 -1 28 c-1 15 -6 27 -12 27 -7 0 -10 -13 -7 -34 3 -31 2 -33
-14 -25 -14 7 -18 22 -18 62 -2 222 -11 635 -15 690 -2 41 -12 81 -23 100 -20
36 -104 87 -142 86 -23 0 -23 -1 -5 -10 11 -5 33 -13 49 -19 16 -6 26 -13 23
-16 -5 -6 -117 13 -125 21 -3 3 0 16 6 29 15 32 73 50 127 39 44 -10 63 -35
95 -124 l18 -53 11 39 c5 22 12 112 15 199 3 114 8 162 18 171 7 7 49 32 93
55 44 22 82 44 85 48 3 4 24 16 48 26 23 11 42 23 42 28 0 4 7 8 15 8 8 0 12
6 9 14 -3 9 1 13 13 13 9 -1 18 3 18 10 0 20 13 25 35 13 12 -7 20 -8 16 -2
-5 9 29 62 41 62 3 0 3 -9 0 -20z m-1444 -25 c-1 -16 -4 -45 -7 -63 -7 -40 20
-81 71 -109 44 -23 63 -59 63 -118 0 -35 4 -47 18 -51 38 -12 47 -22 47 -55
l0 -34 -275 -3 c-151 -1 -302 1 -335 5 -58 8 -60 9 -60 38 0 26 5 31 40 41 22
7 87 13 145 14 95 1 103 2 86 15 -19 14 -18 15 16 15 20 0 40 5 44 11 4 7 -7
10 -35 8 -56 -4 -68 9 -52 62 8 25 20 43 31 46 15 4 17 10 9 36 -11 38 -12
161 -2 171 4 4 50 5 103 4 l95 -3 -2 -30z m2872 26 l30 -7 -44 -29 c-44 -30
-45 -30 -179 -28 -144 2 -182 13 -182 54 0 19 6 20 173 18 94 -1 186 -5 202
-8z m210 -55 c0 -45 3 -50 25 -56 27 -6 40 -38 20 -50 -33 -21 -223 53 -235
91 -3 10 2 30 11 44 16 25 20 26 98 23 l81 -3 0 -49z m-3625 -30 c0 -17 -89
-96 -107 -96 -23 0 -14 17 37 64 51 48 70 56 70 32z m-927 -48 c79 -34 172
-104 220 -163 56 -73 89 -126 81 -134 -4 -3 -9 1 -12 9 -3 8 -20 30 -38 48
-26 26 -39 32 -55 27 -18 -6 -21 -4 -16 9 4 10 3 14 -3 11 -5 -3 -37 15 -72
40 -80 58 -104 58 -41 0 26 -25 51 -45 55 -45 11 0 120 -92 157 -133 36 -39
81 -106 81 -119 0 -23 -31 0 -78 57 -56 69 -147 135 -185 135 -32 0 -118 43
-145 72 -12 14 -25 43 -28 64 l-5 39 30 -34 c34 -38 52 -35 31 4 -7 14 -10 28
-7 32 4 3 0 17 -9 31 -8 13 -13 30 -10 38 3 7 -3 18 -12 23 -32 19 8 11 61
-11z m5781 -20 c-40 -49 -121 -119 -150 -132 -26 -12 -84 -72 -134 -141 -19
-26 14 -2 240 175 39 30 73 65 76 78 4 12 9 22 14 22 6 0 -12 -120 -26 -162
-7 -23 -36 -40 -160 -93 -119 -50 -150 -72 -214 -155 -47 -61 -47 -49 2 63 52
122 116 197 233 278 39 26 81 57 95 68 34 27 48 26 24 -1z m-1200 -46 c2 -4 7
-24 11 -44 l7 -36 -84 3 c-45 2 -86 4 -90 4 -14 2 -8 38 7 51 27 23 138 39
149 22z m-1588 -143 c51 -49 66 -80 44 -94 -11 -7 -50 -92 -50 -109 0 -7 18
-30 41 -51 82 -81 84 -87 84 -294 0 -179 1 -184 23 -198 29 -20 29 -71 1 -107
-23 -29 -54 -34 -63 -11 -3 8 -10 15 -15 15 -6 0 -8 -27 -4 -70 l6 -70 -27 0
c-24 0 -27 -3 -24 -27 2 -22 9 -29 33 -33 26 -4 30 -10 33 -40 1 -19 5 -49 7
-67 l6 -31 95 -7 c76 -6 96 -11 104 -26 18 -32 12 -59 -16 -70 -29 -11 -620
-14 -648 -3 -13 5 -16 16 -14 43 3 35 4 36 63 49 32 7 65 18 72 24 7 6 13 31
13 58 0 40 4 48 24 58 22 10 23 14 19 84 -4 55 -10 79 -26 95 -13 15 -21 37
-21 65 -1 39 2 44 42 71 l44 30 -4 198 c-2 141 -7 202 -15 211 -23 22 -14 37
37 63 28 14 50 32 50 39 0 8 -9 33 -20 57 -30 67 -26 121 11 164 17 19 33 35
36 35 2 0 29 -23 59 -51z m-596 -42 c0 -53 -1 -55 -31 -61 -51 -10 -114 -7
-131 7 -16 12 -41 84 -33 96 2 3 46 7 99 9 l96 4 0 -55z m1345 33 c21 -8 25
-16 25 -48 l0 -39 -89 1 c-100 1 -101 2 -93 70 l4 39 64 -7 c35 -4 75 -11 89
-16z m271 -13 c2 -7 -2 -35 -11 -62 -8 -28 -15 -69 -15 -92 l0 -43 -60 0 -60
0 0 56 c0 33 4 53 10 49 13 -8 80 5 80 16 0 5 -20 9 -45 9 -45 0 -45 0 -45 34
0 39 8 42 93 45 30 1 49 -4 53 -12z m802 -22 c22 -8 13 -35 -15 -47 -29 -11
-566 -18 -584 -8 -5 4 -11 20 -15 37 l-6 31 303 -4 c167 -3 310 -7 317 -9z
m1572 -16 c0 -14 -87 -52 -101 -43 -6 3 11 17 38 29 56 27 63 29 63 14z
m-6997 -14 c20 -8 47 -15 61 -15 14 0 27 -4 30 -9 9 -14 -65 -11 -101 4 -18 8
-33 19 -33 24 0 14 1 14 43 -4z m3964 -10 c12 -8 28 -12 37 -9 13 5 16 -2 15
-42 0 -42 -2 -46 -12 -30 -7 11 -19 27 -27 36 -43 47 -52 60 -44 60 5 0 19 -7
31 -15z m-142 -102 c9 -29 19 -53 24 -53 9 0 11 -9 30 -105 24 -123 25 -605 1
-540 -4 11 -10 114 -14 228 -3 115 -11 241 -17 280 -11 72 -56 188 -78 201 -7
4 -9 17 -6 29 5 16 4 18 -3 8 -8 -11 -12 -10 -21 7 -10 18 -9 21 5 15 13 -5
15 -2 9 18 -7 22 -6 22 24 -6 19 -19 37 -50 46 -82z m-815 57 c0 -5 -14 -7
-32 -3 -46 8 -48 13 -5 13 21 0 37 -4 37 -10z m-1480 -17 c0 -20 -130 -214
-178 -265 -63 -68 -56 -11 11 84 81 117 167 210 167 181z m3685 -23 c3 -10 3
-35 -1 -55 l-6 -35 -70 0 c-55 0 -66 -3 -57 -12 6 -7 27 -14 45 -15 18 -1 42
-6 53 -12 20 -11 20 -11 -2 -59 -18 -41 -22 -70 -25 -217 l-4 -171 27 -12 c30
-14 30 -9 -7 -112 -27 -76 -41 -85 -144 -95 -78 -8 -104 4 -104 50 0 31 -15
35 -130 35 -78 0 -99 -3 -104 -15 -4 -10 1 -15 14 -15 23 0 28 -38 8 -58 -20
-20 -28 -14 -28 20 l0 32 -31 -33 c-28 -31 -33 -33 -72 -27 -51 8 -75 29 -81
70 -3 17 -7 156 -9 310 l-4 278 65 -5 c47 -3 69 -1 79 8 25 26 32 25 -234 33
-116 4 -214 10 -218 14 -14 14 7 28 41 28 33 0 34 1 34 40 0 48 20 54 53 14
62 -75 54 -72 176 -72 97 -1 119 -4 154 -23 23 -12 54 -28 69 -36 15 -8 30
-18 33 -23 3 -4 -6 -32 -20 -62 -14 -29 -25 -60 -25 -68 0 -9 -15 -32 -34 -52
l-35 -37 5 -117 c2 -65 5 -119 7 -120 1 -1 75 -4 164 -6 l162 -3 7 53 c10 78
-2 368 -17 437 -8 33 -19 66 -26 73 -14 14 -18 74 -6 85 3 4 71 7 149 7 133 0
143 -1 149 -20z m-4636 -6 c201 -59 268 -89 317 -145 12 -13 32 -52 44 -86 13
-35 26 -63 31 -63 10 0 23 125 15 146 -4 10 -1 14 6 12 7 -3 25 -47 41 -99 25
-78 30 -117 34 -231 6 -172 2 -192 -37 -186 -27 4 -29 2 -23 -20 5 -22 4 -23
-14 -13 -27 14 -54 56 -44 67 5 5 13 47 19 94 10 82 10 87 -16 135 -53 101
-188 202 -296 221 l-39 7 7 -38 c8 -41 39 -96 95 -165 70 -86 69 -85 45 -72
-24 13 -84 82 -131 152 -17 25 -45 84 -61 132 -17 48 -40 105 -52 128 -23 46
-21 47 59 24z m3819 -11 c-4 -20 -39 -25 -45 -6 -4 10 11 18 40 22 5 0 7 -7 5
-16z m1353 -50 c87 -108 109 -140 135 -198 14 -30 29 -55 34 -55 7 0 15 21 44
125 1 5 8 -12 15 -38 12 -51 25 -55 34 -10 10 49 71 117 133 150 33 17 95 38
139 48 44 9 97 23 118 30 20 7 37 12 37 10 0 -15 -72 -211 -93 -251 -45 -89
-134 -174 -181 -174 -26 0 -13 12 44 43 79 41 159 204 107 215 -32 6 -61 -6
-143 -59 -110 -71 -154 -113 -193 -183 l-33 -61 11 -84 c7 -47 15 -98 18 -113
3 -16 1 -28 -5 -28 -21 0 -42 84 -51 204 -11 144 -21 168 -128 316 -71 98
-113 163 -113 174 0 18 21 -1 71 -61z m-4070 -40 c6 -16 15 -128 19 -250 6
-199 5 -228 -11 -275 -15 -48 -22 -56 -71 -80 -70 -36 -121 -43 -204 -26 l-69
13 1 35 c6 209 45 333 117 372 17 9 18 6 12 -39 -4 -26 -18 -79 -32 -118 -19
-56 -22 -81 -17 -125 4 -30 11 -61 16 -67 7 -9 7 -13 -1 -13 -7 0 -9 -4 -6
-10 10 -16 118 -12 141 5 18 13 17 14 -16 11 -19 -2 -26 -1 -15 1 11 3 23 10
27 17 15 22 8 76 -12 96 -11 11 -15 20 -10 20 6 0 10 8 9 18 0 11 -2 12 -6 4
-3 -8 -15 7 -29 34 -19 37 -25 65 -25 122 -1 41 3 77 8 81 4 3 22 32 38 64 17
32 39 66 51 76 11 9 26 26 33 39 16 30 39 28 52 -5z m1328 -16 c16 -28 19 -53
20 -177 0 -80 4 -295 7 -479 l7 -334 -23 -17 c-18 -14 -30 -16 -54 -9 -17 5
-51 9 -76 9 -25 0 -52 6 -60 13 -17 14 -18 64 -5 437 4 124 8 306 9 405 l1
180 35 5 c19 3 54 3 77 2 35 -3 46 -9 62 -35z m1368 -21 c1 0 4 -223 6 -494
l5 -492 -78 0 -77 0 -7 490 c-4 269 -4 495 -1 501 5 7 30 9 79 4 39 -4 72 -8
73 -9z m1287 -141 c76 -115 79 -128 77 -342 -1 -74 -3 -83 -19 -83 -22 0 -37
41 -52 150 -16 110 -30 111 -30 2 l0 -92 -52 0 -53 0 3 111 c2 70 -1 116 -7
122 -8 8 -11 -2 -11 -34 0 -26 -3 -80 -6 -122 l-7 -77 -44 0 -45 0 4 194 3
195 29 30 c16 17 48 40 70 51 l40 20 24 -23 c13 -12 48 -58 76 -102z m-5547
63 c-3 -7 -5 -2 -5 12 0 14 2 19 5 13 2 -7 2 -19 0 -25z m6123 -298 c0 -24
-144 -98 -155 -80 -10 17 2 26 64 49 33 12 63 26 66 31 8 13 25 13 25 0z
m-5416 -25 c31 -15 62 -52 52 -62 -6 -7 -166 54 -180 68 -17 15 93 10 128 -6z
m831 -186 c-4 -5 -13 -9 -22 -9 -13 0 -13 3 -3 15 13 15 35 11 25 -6z m2229
-58 c1 -21 -2 -37 -6 -34 -5 2 -8 23 -8 45 0 52 12 42 14 -11z m3026 -5 c0 -7
-19 -26 -42 -42 -24 -16 -63 -44 -87 -62 -24 -18 -67 -45 -95 -59 -59 -30
-253 -97 -311 -107 -59 -11 -33 7 55 39 169 60 242 109 265 178 9 28 15 33 58
39 26 5 68 12 95 17 26 5 50 9 55 10 4 0 7 -5 7 -13z m-6355 -16 c3 -6 -1 -7
-9 -4 -18 7 -21 14 -7 14 6 0 13 -4 16 -10z m-58 -16 c-3 -3 -12 -4 -19 -1 -8
3 -5 6 6 6 11 1 17 -2 13 -5z m1133 -8 c0 -18 32 -26 54 -14 25 14 46 -8 46
-47 0 -42 -19 -57 -79 -63 -43 -4 -50 -1 -69 23 -14 17 -22 42 -22 66 0 31 4
38 23 42 41 8 47 7 47 -7z m-164 -19 c3 -8 6 -34 8 -58 3 -63 25 -103 58 -107
33 -4 48 -21 58 -67 10 -44 -6 -55 -84 -55 -33 0 -56 -5 -58 -12 -3 -9 -20 -8
-69 2 -111 23 -110 22 -107 82 l3 53 45 -2 c33 -1 39 0 20 6 -17 5 -24 14 -23
27 1 10 -5 23 -13 27 -18 10 -18 38 0 82 l15 35 71 0 c50 0 72 -4 76 -13z
m3698 -38 l-35 -36 53 -6 c29 -4 72 -7 95 -7 23 0 44 -4 47 -9 10 -15 -17 -18
-84 -9 -36 5 -220 13 -410 17 -190 4 -346 9 -347 9 -2 1 -3 19 -3 40 l0 37
360 0 359 0 -35 -36z m-1274 17 c0 -8 -4 -18 -10 -21 -5 -3 -10 3 -10 14 0 12
5 21 10 21 6 0 10 -6 10 -14z m1766 -18 c-8 -44 -38 -82 -66 -86 -56 -9 -49
42 12 88 53 38 62 38 54 -2z m-5026 12 c0 -5 -2 -10 -4 -10 -3 0 -8 5 -11 10
-3 6 -1 10 4 10 6 0 11 -4 11 -10z m4563 -141 c86 -13 103 -22 112 -60 6 -25
4 -26 -47 -32 -29 -4 -144 -7 -256 -7 -188 0 -203 1 -200 18 2 11 20 22 48 30
25 7 85 25 134 41 48 15 98 27 110 25 11 -2 56 -8 99 -15z m568 -19 c28 -16
26 -66 -3 -74 -30 -8 -187 -8 -227 0 -71 14 -17 67 78 75 109 10 131 9 152 -1z
m-1031 -55 l0 -35 -100 0 -100 0 0 35 0 35 100 0 100 0 0 -35z m159 -90 c8 -8
11 -23 7 -39 -5 -20 -13 -26 -49 -30 -65 -8 -2222 -15 -2312 -8 l-80 7 0 40 0
40 55 6 c30 3 575 4 1210 1 926 -3 1158 -7 1169 -17z m669 16 c7 -4 22 -43 33
-86 11 -43 34 -104 50 -137 l29 -58 -59 0 c-33 0 -63 4 -66 10 -7 12 -23 261
-18 273 5 9 15 9 31 -2z m-4153 -11 c3 -5 -15 -72 -41 -148 l-46 -140 -56 -18
c-61 -19 -109 -60 -114 -97 -2 -17 -11 -23 -35 -25 -38 -4 -43 11 -13 36 30
27 96 169 125 273 15 52 30 98 35 103 19 19 135 32 145 16z m175 -57 c0 -38
-3 -105 -7 -150 l-6 -83 -78 0 c-42 0 -85 3 -94 6 -15 6 -15 8 0 24 9 10 19
38 22 62 6 50 24 98 37 98 4 0 3 7 -4 15 -9 11 -9 15 -1 15 7 0 9 5 6 10 -3 6
0 10 9 10 8 0 17 13 21 30 6 28 10 30 51 30 l44 0 0 -67z m3770 33 c7 -19 40
-226 40 -252 0 -2 -44 -3 -97 -2 l-98 3 -5 50 c-5 49 -6 50 -40 53 -44 4 -52
12 -59 59 -5 31 -12 41 -39 52 -23 11 -32 21 -32 38 l0 23 160 0 160 0 10 -24z
m405 -33 c9 -89 23 -140 62 -230 20 -46 34 -85 31 -88 -2 -3 -26 -8 -51 -11
-47 -7 -47 -7 -47 23 0 17 -22 86 -49 154 -27 68 -52 143 -56 167 l-7 42 55 0
56 0 6 -57z m-5460 -84 c125 -35 148 -46 139 -61 -10 -15 -139 -4 -189 17 -99
41 -194 89 -190 96 6 8 85 -9 240 -52z m6573 25 c-7 -7 -56 -30 -108 -50 -82
-31 -110 -37 -202 -42 -89 -4 -108 -2 -108 9 0 11 37 20 142 37 77 13 171 33
207 45 69 24 92 24 69 1z m-2745 -43 l848 -1 -6 -22 c-4 -13 -10 -26 -14 -30
-3 -4 -366 -10 -806 -14 -440 -4 -840 -10 -890 -14 -98 -8 80 -10 1160 -15
336 -2 638 -6 673 -10 56 -6 62 -9 62 -30 0 -12 -7 -26 -16 -29 -9 -3 -388 -7
-842 -7 -1354 -3 -2125 -12 -2129 -26 -3 -8 7 -11 31 -9 20 2 36 0 36 -4 0
-11 -50 -19 -95 -14 -35 3 -37 3 -15 -7 14 -6 79 -9 150 -8 69 1 424 -2 790
-5 366 -4 1055 -8 1533 -9 825 -2 868 -3 873 -20 16 -50 126 -47 -1970 -47
l-1952 0 -12 33 c-7 19 -12 35 -12 38 0 2 96 4 213 4 116 1 234 4 261 9 46 7
47 8 24 20 -13 7 -39 16 -57 19 -47 10 -61 24 -61 63 l0 34 188 1 c103 0 196
4 207 9 13 6 -14 9 -77 9 l-98 1 0 40 0 40 428 2 c235 2 495 2 577 2 83 -1
532 -2 998 -3z m-3353 -65 c-19 -7 -75 -16 -124 -20 -49 -3 -101 -9 -115 -12
l-26 -5 28 16 c27 16 138 32 227 33 l45 1 -35 -13z m-273 -42 c-3 -3 -12 -4
-19 -1 -8 3 -5 6 6 6 11 1 17 -2 13 -5z m6527 -49 c-42 -19 -324 -33 -308 -16
9 10 182 26 309 29 l30 0 -31 -13z m-5653 -53 c14 -37 -4 -53 -44 -40 -43 14
-57 27 -51 43 13 32 83 29 95 -3z m1022 11 c-7 -2 -19 -2 -25 0 -7 3 -2 5 12
5 14 0 19 -2 13 -5z m-1415 -186 c14 -39 16 -103 3 -111 -13 -8 -31 50 -31
100 0 52 11 57 28 11z m4500 7 l452 -6 6 -24 c3 -13 4 -30 1 -37 -4 -11 -350
-14 -1999 -15 -1096 0 -2196 -4 -2444 -8 -448 -6 -452 -6 -458 14 -12 37 3 72
33 73 279 15 3427 16 4409 3z m-2808 -134 c674 -7 1716 -15 2315 -18 l1090 -7
3 -25 c2 -14 -3 -34 -11 -44 -13 -18 -57 -19 -1538 -23 -838 -2 -1897 -7
-2354 -12 -456 -4 -720 -9 -585 -10 135 -2 234 -6 220 -11 -14 -4 -54 -6 -90
-4 -36 2 -59 1 -51 -2 11 -5 11 -8 0 -15 -13 -8 1066 -17 1230 -11 47 2 79 9
88 18 18 18 27 18 20 0 -8 -20 91 -25 586 -33 385 -6 429 -8 440 -23 7 -9 37
-22 67 -29 30 -7 68 -17 83 -23 21 -8 31 -8 40 1 17 17 -8 30 -58 32 -57 1
-89 12 -93 31 -4 21 68 33 136 24 153 -22 477 -33 486 -17 13 21 176 22 176 2
0 -4 -14 -18 -32 -31 -28 -20 -36 -22 -70 -13 -45 12 -50 0 -10 -21 27 -14 32
-13 80 15 29 16 52 37 52 45 0 14 8 16 48 11 26 -4 247 -6 492 -6 245 1 472 1
505 1 33 0 180 -4 326 -10 l266 -9 62 -38 c33 -21 61 -39 61 -41 0 -1 -701 -3
-1557 -4 -1677 -1 -2408 -6 -2422 -14 -12 -8 -2322 -8 -2330 0 -9 9 47 50 114
83 57 28 66 29 195 30 74 0 145 1 158 3 26 3 29 24 6 49 -8 9 -18 41 -21 71
l-5 55 47 6 c26 4 75 7 109 8 34 1 90 6 126 13 36 6 135 10 220 9 85 -1 706
-7 1380 -13z m-1967 -154 c8 -20 -30 -31 -48 -16 -8 7 -12 16 -9 21 9 14 51
10 57 -5z"/>
<path d="M5318 8820 c-16 -21 -28 -44 -28 -51 0 -7 14 9 31 35 38 57 35 70 -3
16z"/>
<path d="M5256 8725 c-10 -15 -15 -32 -13 -38 2 -7 12 3 21 21 21 41 15 53 -8
17z"/>
<path d="M5460 8746 c0 -2 7 -9 15 -16 13 -11 14 -10 9 4 -5 14 -24 23 -24 12z"/>
<path d="M5159 8594 c-7 -9 -14 -40 -15 -68 -1 -28 -13 -82 -27 -121 -38 -104
-67 -202 -67 -222 0 -10 29 67 64 172 45 132 61 192 53 197 -8 5 -8 13 1 32
13 30 10 33 -9 10z"/>
<path d="M5110 8486 c0 -9 -4 -16 -10 -16 -5 0 -10 -5 -10 -12 0 -6 -6 -19
-14 -27 -8 -9 -26 -45 -40 -81 -23 -59 -36 -99 -91 -284 -8 -26 -15 -61 -15
-77 0 -16 -4 -29 -10 -29 -5 0 -10 -15 -9 -32 0 -18 -2 -46 -5 -63 l-6 -30 11
30 c7 17 14 32 16 35 7 8 23 -24 23 -47 0 -13 5 -23 11 -23 6 0 8 17 5 48 -4
30 -3 40 2 27 7 -15 10 -8 16 34 4 31 3 58 -2 63 -7 7 -1 43 15 102 35 129 34
126 44 126 5 0 9 6 9 14 0 17 58 206 70 228 6 11 6 19 0 23 -6 3 -10 -1 -10
-9z"/>
<path d="M5437 8323 c-4 -3 -7 -12 -7 -20 0 -7 -10 -34 -22 -59 -19 -41 -31
-114 -20 -114 3 0 15 11 28 25 15 16 34 25 54 25 35 0 37 9 15 69 -17 50 -39
83 -48 74z"/>
<path d="M5721 8194 c0 -11 3 -14 6 -6 3 7 2 16 -1 19 -3 4 -6 -2 -5 -13z"/>
<path d="M5731 8158 c0 -7 4 -22 9 -33 8 -18 9 -17 9 7 1 15 -3 30 -9 33 -5 3
-10 0 -9 -7z"/>
<path d="M5151 8074 c0 -11 3 -14 6 -6 3 7 2 16 -1 19 -3 4 -6 -2 -5 -13z"/>
<path d="M5152 7965 c0 -16 2 -22 5 -12 2 9 2 23 0 30 -3 6 -5 -1 -5 -18z"/>
<path d="M5456 7955 c-9 -13 -13 -31 -10 -39 3 -9 2 -16 -4 -16 -15 0 -5 -50
14 -71 9 -10 21 -16 25 -13 5 3 9 -2 9 -11 0 -12 8 -10 40 11 45 30 49 47 20
104 -31 61 -68 75 -94 35z"/>
<path d="M5857 7866 c-4 -15 -6 -31 -2 -34 10 -10 16 6 13 35 l-3 28 -8 -29z"/>
<path d="M5134 7864 c3 -9 6 -23 6 -32 1 -16 1 -16 10 0 11 18 3 48 -12 48 -6
0 -7 -7 -4 -16z"/>
<path d="M5815 7870 c-3 -5 -1 -10 4 -10 6 0 11 5 11 10 0 6 -2 10 -4 10 -3 0
-8 -4 -11 -10z"/>
<path d="M4863 7708 c-15 -19 -23 -58 -12 -58 5 0 9 -4 9 -10 0 -5 -7 -10 -16
-10 -12 0 -15 -7 -12 -25 3 -15 -2 -32 -13 -44 -10 -10 -16 -21 -14 -23 9 -9
12 -78 3 -78 -5 0 -6 -5 -3 -11 4 -5 8 -38 9 -72 2 -52 -1 -65 -18 -79 -17
-15 -18 -18 -5 -18 14 0 16 -10 13 -67 -3 -48 -1 -61 5 -43 7 20 9 13 10 -34
2 -95 11 -59 21 80 6 71 15 146 20 166 19 68 29 179 19 207 -7 18 -7 39 2 69
13 46 2 75 -18 50z m-46 -490 c-3 -8 -6 -5 -6 6 -1 11 2 17 5 13 3 -3 4 -12 1
-19z"/>
<path d="M5364 7672 c-4 -20 -11 -39 -15 -43 -13 -8 -24 -99 -12 -99 5 0 20
33 32 73 13 39 26 77 28 83 2 6 -3 14 -11 17 -11 5 -17 -3 -22 -31z"/>
<path d="M5308 7493 c4 -35 5 -36 14 -14 6 17 5 29 -5 38 -11 11 -12 7 -9 -24z"/>
<path d="M5415 7320 c-3 -5 1 -10 10 -10 9 0 13 5 10 10 -3 6 -8 10 -10 10 -2
0 -7 -4 -10 -10z"/>
<path d="M5437 7253 c-4 -3 -7 -13 -7 -22 1 -13 3 -13 11 2 11 19 8 33 -4 20z"/>
<path d="M5460 7117 c0 -16 28 -75 39 -81 8 -5 8 0 1 19 -11 30 -40 74 -40 62z"/>
<path d="M4725 7080 c-4 -6 -11 -7 -17 -4 -6 4 -9 1 -6 -6 7 -21 43 -21 56 0
11 17 10 20 -7 20 -11 0 -23 -5 -26 -10z"/>
<path d="M4364 5680 c-50 -20 -36 -46 26 -51 40 -4 45 -2 42 16 -7 47 -21 54
-68 35z"/>
<path d="M4533 5677 c-6 -6 -13 -21 -17 -31 -6 -17 -2 -18 45 -13 60 7 68 12
48 31 -21 20 -65 28 -76 13z"/>
<path d="M5435 5800 c-3 -6 1 -7 9 -4 18 7 21 14 7 14 -6 0 -13 -4 -16 -10z"/>
<path d="M5336 5653 c-6 -14 -5 -15 5 -6 7 7 10 15 7 18 -3 3 -9 -2 -12 -12z"/>
<path d="M5504 5608 c3 -10 1 -20 -4 -23 -6 -4 -10 -14 -10 -23 0 -15 2 -15
10 -2 8 12 10 10 10 -8 0 -13 4 -20 10 -17 5 3 7 0 4 -8 -3 -8 2 -20 11 -27
14 -12 18 -11 25 0 6 9 4 20 -4 30 -8 8 -23 33 -35 55 -12 22 -20 32 -17 23z"/>
<path d="M5295 5599 c-4 -6 -5 -12 -2 -15 2 -3 7 2 10 11 7 17 1 20 -8 4z"/>
<path d="M5432 5509 c-13 -10 -22 -23 -20 -28 1 -5 16 1 32 14 15 12 24 25 20
28 -5 3 -20 -3 -32 -14z"/>
<path d="M5300 5420 c-9 -6 -10 -10 -3 -10 6 0 15 5 18 10 8 12 4 12 -15 0z"/>
<path d="M6036 5181 c21 -21 237 -71 302 -70 51 1 48 4 -11 14 -21 3 -35 10
-32 15 3 5 -4 14 -15 20 -11 6 -19 14 -16 18 2 4 -49 7 -115 7 -65 1 -116 -1
-113 -4z"/>
<path d="M4403 5143 c15 -2 37 -2 50 0 12 2 0 4 -28 4 -27 0 -38 -2 -22 -4z"/>
<path d="M4160 4083 c-20 -8 -30 -24 -30 -49 0 -16 5 -21 23 -19 48 5 51 7 27
15 -24 8 -23 8 8 9 17 1 32 6 32 12 0 7 8 18 18 25 15 12 12 13 -23 13 -22 0
-47 -3 -55 -6z"/>
<path d="M4198 3963 c17 -2 47 -2 65 0 17 2 3 4 -33 4 -36 0 -50 -2 -32 -4z"/>
<path d="M4413 3863 c9 -2 25 -2 35 0 9 3 1 5 -18 5 -19 0 -27 -2 -17 -5z"/>
<path d="M5415 5251 c-14 -23 -96 -70 -113 -65 -11 4 -13 3 -5 -3 10 -7 8 -13
-8 -26 -11 -10 -25 -15 -31 -11 -5 4 -14 0 -19 -7 -12 -19 -11 -42 1 -34 6 4
7 11 4 17 -5 7 -2 8 5 4 8 -5 35 9 69 36 31 24 72 53 90 63 31 19 42 35 23 35
-6 0 -12 -4 -16 -9z"/>
<path d="M5145 5110 c-4 -6 -33 -24 -64 -40 -32 -16 -61 -36 -64 -45 -8 -20 1
-19 45 5 21 11 45 17 55 14 15 -5 16 -4 3 5 -14 10 -7 15 13 12 12 -2 67 39
67 50 0 12 -47 12 -55 -1z"/>
<path d="M5086 4950 c-10 -11 -23 -17 -27 -14 -9 5 -24 -46 -33 -111 -3 -22
-9 -55 -12 -74 -5 -24 -3 -32 5 -27 6 4 11 14 11 22 0 8 5 14 10 14 6 0 10 6
10 14 0 8 9 17 19 21 25 7 98 114 86 123 -6 4 -15 16 -21 26 -14 27 -26 28
-48 6z m-29 -112 c-3 -7 -5 -2 -5 12 0 14 2 19 5 13 2 -7 2 -19 0 -25z"/>
<path d="M5002 3970 c0 -14 2 -19 5 -12 2 6 2 18 0 25 -3 6 -5 1 -5 -13z"/>
<path d="M5421 4609 c-16 -47 -14 -108 4 -115 22 -9 18 -30 -7 -49 -20 -13
-23 -23 -20 -77 3 -78 18 -110 59 -121 25 -8 39 -5 65 10 32 19 33 21 31 83
-1 45 -9 77 -27 112 -24 46 -25 51 -11 79 12 23 13 34 4 52 -34 65 -80 78 -98
26z"/>
<path d="M5430 4149 c0 -11 5 -17 10 -14 6 3 10 13 10 21 0 8 -4 14 -10 14 -5
0 -10 -9 -10 -21z"/>
<path d="M2880 4328 c0 -9 5 -20 10 -23 13 -8 13 5 0 25 -8 13 -10 13 -10 -2z"/>
<path d="M7431 4424 c0 -11 3 -14 6 -6 3 7 2 16 -1 19 -3 4 -6 -2 -5 -13z"/>
<path d="M4330 3390 c-19 -4 75 -8 210 -9 143 0 251 3 260 9 18 12 -415 12
-470 0z"/>
<path d="M4918 3393 c7 -3 16 -2 19 1 4 3 -2 6 -13 5 -11 0 -14 -3 -6 -6z"/>
<path d="M3923 3273 c9 -2 23 -2 30 0 6 3 -1 5 -18 5 -16 0 -22 -2 -12 -5z"/>
<path d="M4802 2719 c6 -17 116 -25 131 -10 8 8 -6 11 -45 11 -31 0 -64 3 -74
7 -12 4 -15 2 -12 -8z"/>
<path d="M7807 2709 c-9 -6 -15 -14 -12 -19 7 -11 58 3 63 18 5 15 -26 15 -51
1z"/>
<path d="M6310 8606 c0 -2 9 -6 20 -9 11 -3 18 -1 14 4 -5 9 -34 13 -34 5z"/>
<path d="M3889 7658 c-7 -13 -27 -40 -46 -61 -18 -21 -31 -43 -27 -49 4 -6 3
-8 -3 -5 -5 3 -17 -3 -26 -14 -9 -10 -15 -19 -12 -19 2 0 -9 -14 -24 -31 -16
-17 -35 -42 -42 -57 -23 -43 -131 -142 -155 -142 -13 0 -24 -8 -27 -19 -3 -12
-42 -37 -108 -69 -163 -80 -183 -79 -150 5 10 26 22 63 26 81 6 31 5 33 -37
51 -23 11 -57 22 -75 26 -29 6 -33 4 -39 -22 -8 -29 -34 -80 -64 -123 -10 -14
-27 -43 -39 -65 -40 -74 -66 -113 -106 -160 -22 -26 -52 -65 -67 -87 -15 -22
-44 -52 -65 -66 -51 -37 -228 -215 -340 -343 -223 -255 -429 -423 -653 -532
-91 -43 -281 -107 -322 -107 -11 0 -16 -5 -13 -11 9 -14 115 -3 220 22 84 21
194 64 279 111 28 15 62 33 76 39 22 9 157 99 286 189 22 16 132 125 244 242
112 117 290 298 394 403 105 104 203 205 218 223 l27 33 12 -23 c7 -13 17 -27
24 -33 6 -5 30 -35 52 -65 23 -30 50 -64 60 -75 10 -11 30 -36 43 -55 41 -59
72 -90 83 -83 6 4 8 0 4 -10 -4 -11 -1 -17 8 -17 8 0 17 -11 21 -24 5 -21 34
-46 34 -30 0 8 -22 48 -30 54 -4 3 -24 37 -44 77 -26 49 -42 70 -52 66 -8 -3
-14 0 -14 6 0 6 -7 11 -15 11 -8 0 -15 5 -15 11 0 5 4 8 9 4 5 -3 12 -1 16 5
3 6 -1 13 -9 16 -9 3 -16 12 -16 19 0 7 -7 18 -15 25 -14 12 -13 16 7 38 l23
26 -27 -17 c-16 -10 -28 -14 -28 -9 0 15 35 42 54 42 9 0 15 4 12 9 -3 5 3 11
14 14 11 3 18 2 16 -1 -2 -4 2 -13 10 -20 11 -10 27 0 86 52 104 91 243 236
242 252 -1 8 2 12 6 9 9 -5 130 140 130 156 0 5 9 9 21 9 13 0 20 -6 18 -17
-2 -29 1 -47 7 -40 10 9 38 -23 39 -45 1 -11 6 -23 12 -26 5 -4 45 -50 88
-102 89 -107 135 -156 135 -142 0 5 -7 15 -15 22 -8 7 -13 15 -10 19 2 4 -2
19 -10 34 -8 15 -11 27 -7 27 4 0 8 12 9 27 0 14 -2 21 -6 15 -4 -7 -15 16
-25 50 -15 49 -30 74 -69 116 -28 28 -56 52 -61 52 -5 0 -2 -8 7 -18 10 -10
17 -25 17 -33 0 -9 -8 -4 -20 11 -11 14 -19 32 -17 41 2 16 -108 149 -123 149
-5 0 -15 -10 -21 -22z m-474 -518 c3 -6 -1 -7 -9 -4 -18 7 -21 14 -7 14 6 0
13 -4 16 -10z m81 -21 l26 11 -22 -30 c-24 -34 -35 -37 -44 -12 -3 9 -9 24
-13 32 -5 13 -4 13 11 1 13 -11 22 -12 42 -2z m-88 -30 c-20 -13 -28 -11 -22
5 3 8 12 12 21 9 12 -5 12 -7 1 -14z m-908 -712 c0 -2 -10 -12 -22 -23 l-23
-19 19 23 c18 21 26 27 26 19z m-80 -76 c0 -4 -9 -7 -20 -7 -11 0 -20 6 -20
12 0 7 8 10 20 7 11 -3 20 -8 20 -12z m-110 -81 c0 -5 -5 -10 -11 -10 -5 0 -7
5 -4 10 3 6 8 10 11 10 2 0 4 -4 4 -10z"/>
<path d="M4106 7073 c-4 -4 -26 -13 -49 -18 l-42 -11 43 -24 c23 -13 42 -27
42 -31 0 -20 46 -78 59 -73 8 3 11 -1 8 -10 -4 -10 -1 -13 9 -9 20 7 18 27 -6
48 -11 10 -20 23 -20 28 0 6 14 -2 32 -19 18 -16 26 -21 19 -11 -27 35 -4 26
39 -16 69 -67 29 -10 -52 76 -41 43 -77 74 -82 70z m24 -43 c-10 -7 -11 -10
-2 -10 6 0 12 -4 12 -10 0 -15 -15 -12 -38 8 l-22 19 32 1 c23 1 28 -2 18 -8z"/>
<path d="M4196 6883 c-6 -14 -5 -15 5 -6 7 7 10 15 7 18 -3 3 -9 -2 -12 -12z"/>
<path d="M4243 6795 c-3 -9 -3 -19 1 -22 3 -4 6 2 6 12 0 15 2 16 18 4 15 -13
16 -12 3 4 -17 21 -20 21 -28 2z"/>
<path d="M3281 6735 c-1 -30 19 -95 29 -95 5 0 17 -14 25 -31 9 -17 18 -29 21
-26 2 2 -8 28 -23 58 -16 30 -33 68 -40 84 -8 23 -11 25 -12 10z"/>
<path d="M3370 6558 c0 -4 9 -22 20 -40 11 -18 20 -28 20 -23 0 6 -9 24 -20
40 -11 17 -20 27 -20 23z"/>
<path d="M3915 6461 c4 -8 -29 -25 -45 -23 -3 0 -10 -4 -17 -10 -7 -5 -16 -7
-22 -4 -5 4 -12 -3 -16 -14 -4 -14 -15 -20 -36 -20 -16 0 -29 -4 -29 -10 0 -5
7 -7 15 -3 9 3 2 -8 -15 -25 -16 -17 -30 -35 -30 -41 0 -6 18 7 41 29 22 21
70 55 105 75 35 20 62 40 59 46 -4 5 -8 9 -11 9 -3 0 -3 -4 1 -9z"/>
<path d="M3790 6449 c0 -5 5 -7 10 -4 6 3 10 8 10 11 0 2 -4 4 -10 4 -5 0 -10
-5 -10 -11z"/>
<path d="M3702 6387 c-18 -18 -32 -42 -31 -52 0 -19 1 -19 9 1 4 11 24 34 44
52 20 18 31 32 23 32 -7 0 -27 -15 -45 -33z"/>
<path d="M3356 6268 c-4 -40 -9 -95 -12 -122 l-6 -48 22 22 c12 12 22 32 22
44 1 36 -12 169 -16 173 -2 2 -6 -29 -10 -69z"/>
<path d="M3675 6270 c-16 -17 -16 -20 -3 -15 9 4 19 13 22 21 7 19 2 18 -19
-6z"/>
<path d="M8092 5445 c-17 -37 -14 -45 4 -12 9 16 14 31 11 33 -2 2 -9 -7 -15
-21z"/>
<path d="M2716 5363 c-3 -3 -6 -11 -6 -16 0 -6 3 -7 6 -4 4 4 15 -3 25 -15 25
-28 25 -13 0 18 -10 13 -21 20 -25 17z"/>
<path d="M2765 5300 c-3 -6 1 -18 10 -27 9 -9 28 -33 41 -55 21 -33 44 -50 44
-32 0 7 -80 124 -85 124 -2 0 -7 -5 -10 -10z"/>
<path d="M2870 5165 c0 -5 5 -17 10 -25 5 -8 10 -10 10 -5 0 6 -5 17 -10 25
-5 8 -10 11 -10 5z"/>
<path d="M2550 3902 c0 -7 5 -12 10 -12 6 0 10 -7 10 -15 0 -8 5 -15 10 -15
16 0 12 15 -10 35 -11 10 -20 13 -20 7z"/>
<path d="M2504 3875 c-10 -8 -14 -15 -7 -15 6 0 15 5 18 11 4 6 14 8 22 5 8
-3 11 -1 8 4 -8 14 -18 13 -41 -5z"/>
<path d="M1523 2329 c-52 -26 -88 -66 -122 -139 -24 -51 -26 -67 -29 -231 -4
-197 7 -269 56 -349 57 -93 161 -132 257 -96 50 20 115 86 115 118 0 28 -48
98 -68 98 -8 0 -30 -13 -49 -30 -56 -49 -124 -36 -158 30 -19 36 -22 348 -4
383 39 75 103 90 162 37 19 -16 42 -30 50 -30 17 0 67 77 67 103 0 26 -57 84
-104 106 -54 27 -119 27 -173 0z"/>
<path d="M2787 2338 c-11 -9 -47 -139 -112 -395 -52 -211 -95 -387 -95 -392 0
-38 86 -55 118 -23 9 9 25 52 35 95 l19 77 88 0 88 0 19 -77 c10 -43 26 -86
35 -95 35 -35 118 -17 118 25 0 12 -43 191 -95 397 -66 260 -100 379 -112 388
-9 6 -33 12 -53 12 -20 0 -44 -6 -53 -12z m77 -369 c10 -45 20 -87 23 -95 4
-11 -6 -14 -47 -14 -38 0 -51 3 -47 13 2 6 12 49 22 95 10 45 21 82 25 82 4 0
14 -36 24 -81z"/>
<path d="M5276 2337 c-13 -10 -44 -115 -112 -383 -52 -203 -94 -380 -94 -394
0 -36 18 -50 60 -50 53 0 67 16 87 105 l18 80 89 0 89 0 22 -84 c12 -46 29
-87 36 -92 18 -11 80 -11 98 0 8 5 14 22 14 38 -1 49 -184 757 -200 775 -19
21 -81 24 -107 5z m78 -384 c9 -40 16 -77 16 -82 0 -6 -20 -11 -45 -11 -25 0
-45 5 -45 10 0 6 10 49 21 96 24 96 29 95 53 -13z"/>
<path d="M6940 2328 c-68 -35 -102 -97 -108 -197 -8 -144 33 -212 181 -295 71
-39 92 -68 81 -111 -15 -62 -72 -75 -153 -34 -33 17 -65 28 -71 24 -11 -7 -50
-92 -50 -109 0 -20 51 -63 100 -85 87 -40 177 -23 238 43 87 94 94 251 17 351
-14 20 -60 53 -101 76 -83 45 -114 78 -114 119 0 73 77 96 150 45 47 -33 64
-28 85 21 36 86 27 104 -70 150 -64 31 -127 31 -185 2z"/>
<path d="M8032 2341 c-8 -5 -23 -39 -33 -77 -27 -96 -179 -701 -179 -713 0
-22 33 -41 70 -41 48 0 64 20 81 100 19 91 18 90 114 90 84 0 85 0 91 -27 33
-146 43 -163 97 -163 40 0 67 17 67 43 0 12 -43 191 -95 397 -67 267 -99 378
-111 387 -20 15 -82 17 -102 4z m72 -368 c10 -43 20 -86 22 -95 5 -16 -2 -18
-46 -18 -39 0 -51 3 -47 13 3 8 13 50 23 95 11 45 21 82 25 82 3 0 13 -35 23
-77z"/>
<path d="M9142 2329 c-72 -36 -112 -115 -112 -223 0 -126 39 -185 178 -266 62
-37 78 -52 86 -78 7 -27 6 -38 -11 -59 -33 -45 -69 -48 -140 -12 -34 17 -66
28 -72 25 -12 -8 -51 -92 -51 -110 0 -20 51 -63 100 -85 49 -22 123 -27 167
-10 106 39 167 191 130 320 -22 73 -61 117 -147 164 -81 44 -110 75 -110 115
0 73 76 95 152 45 51 -34 66 -27 91 40 21 58 17 73 -31 106 -77 53 -158 63
-230 28z"/>
<path d="M1957 2333 c-4 -3 -7 -185 -7 -404 0 -384 1 -399 19 -409 27 -14 74
-13 94 3 14 10 17 36 19 172 l3 160 110 0 110 0 3 -165 c2 -116 6 -166 15
-172 6 -4 29 -8 49 -8 70 0 68 -13 68 419 0 324 -2 391 -14 400 -8 7 -36 11
-63 9 l-48 -3 -5 -155 -5 -155 -110 0 -110 0 -2 135 c-4 185 -2 180 -67 180
-29 0 -56 -3 -59 -7z"/>
<path d="M3257 2325 c-10 -9 -19 -26 -22 -38 -3 -12 -5 -188 -3 -390 3 -407 0
-387 70 -387 63 0 68 13 68 171 0 76 4 139 8 139 5 0 42 -69 83 -152 l74 -153
42 -3 c50 -4 83 11 83 38 0 11 -30 80 -67 154 l-67 134 37 35 c56 53 81 117
81 209 -1 98 -36 176 -102 223 -41 28 -49 30 -156 33 -95 3 -116 1 -129 -13z
m232 -181 c30 -38 28 -98 -4 -129 -18 -19 -35 -25 -70 -25 l-45 0 0 90 0 90
49 0 c42 0 53 -4 70 -26z"/>
<path d="M3824 2326 c-18 -14 -19 -30 -19 -401 0 -375 1 -387 20 -402 16 -12
44 -14 136 -11 103 4 120 7 161 30 53 32 93 81 122 152 19 45 21 70 21 231 -1
165 -3 185 -24 239 -30 74 -99 147 -157 164 -59 17 -235 16 -260 -2z m250
-177 c53 -42 61 -71 61 -224 0 -130 -2 -143 -23 -178 -30 -47 -68 -67 -127
-67 l-45 0 0 245 0 245 54 0 c39 0 60 -6 80 -21z"/>
<path d="M4440 2320 c-7 -13 -10 -146 -8 -405 3 -426 0 -405 68 -405 64 0 65
2 68 185 l3 165 110 0 109 0 0 -159 c0 -132 3 -162 16 -175 19 -20 87 -21 103
-2 8 9 10 126 9 412 l-3 399 -54 3 c-37 2 -57 -1 -62 -10 -5 -7 -9 -79 -9
-160 l0 -148 -110 0 -110 0 0 141 c0 77 -5 149 -10 160 -16 28 -105 28 -120
-1z"/>
<path d="M5801 2322 c-5 -10 -27 -191 -47 -401 -37 -374 -37 -384 -19 -397 24
-18 76 -18 99 -1 15 11 21 48 36 226 11 118 21 215 23 218 3 2 28 -92 57 -209
29 -117 57 -221 62 -230 7 -14 21 -18 62 -18 31 0 58 5 63 13 6 6 34 110 64
229 29 120 56 212 60 205 3 -6 11 -82 18 -167 21 -277 22 -280 91 -280 52 0
74 23 67 69 -3 20 -20 189 -38 376 -21 221 -37 348 -46 363 -11 18 -22 22 -68
22 -48 0 -57 -3 -66 -23 -6 -13 -39 -135 -73 -273 -35 -137 -66 -242 -69 -234
-4 8 -34 125 -68 260 -33 135 -66 251 -71 258 -6 7 -34 12 -69 12 -46 0 -60
-4 -68 -18z"/>
<path d="M7342 2328 c-15 -15 -16 -112 -2 -139 9 -16 22 -19 80 -19 l70 0 0
-314 c0 -351 -1 -346 68 -346 70 0 67 -15 70 340 l3 320 62 0 c34 0 68 4 76 9
18 11 26 98 12 134 l-11 27 -208 0 c-148 0 -211 -3 -220 -12z"/>
<path d="M8441 2318 c-10 -28 -16 -13 91 -246 l88 -193 0 -174 c0 -162 1 -175
19 -185 25 -13 67 -13 92 0 18 10 19 23 19 189 l0 178 90 194 c49 107 90 204
90 215 0 33 -23 45 -77 42 l-48 -3 -59 -132 c-33 -73 -62 -130 -65 -127 -3 3
-31 62 -62 132 l-56 127 -57 3 c-51 3 -57 1 -65 -20z"/>
</g>
</svg>
